<svg xmlns="http://www.w3.org/2000/svg" width="38.923" height="38.923" viewBox="0 0 38.923 38.923"><defs><style>.a{fill:#c9c9c9;}</style></defs><path class="a" d="M15.83,55.308h-.007a.611.611,0,1,0,.007,0Z" transform="translate(-5.963 -21.672)"/><path class="a" d="M15.83,51.061h-.007a.611.611,0,1,0,.007,0Z" transform="translate(-5.963 -20.008)"/><path class="a" d="M11.587,51.065H11.58a.611.611,0,1,0,.007,0Z" transform="translate(-4.3 -20.009)"/><path class="a" d="M11.587,46.817H11.58a.611.611,0,1,0,.007,0Z" transform="translate(-4.3 -18.345)"/><path class="a" d="M7.346,46.824H7.339a.612.612,0,1,0,.006,0Z" transform="translate(-2.638 -18.348)"/><path class="a" d="M20.071,51.067h-.007a.611.611,0,1,0,.007,0Z" transform="translate(-7.625 -20.01)"/><path class="a" d="M20.071,46.819h-.007a.611.611,0,1,0,.007,0Z" transform="translate(-7.625 -18.346)"/><path class="a" d="M15.828,48.041a.608.608,0,1,0,0-1.216h-.007a.608.608,0,0,0,.007,1.216Z" transform="translate(-5.962 -18.348)"/><path class="a" d="M15.828,42.577h-.007a.611.611,0,1,0,.007,0Z" transform="translate(-5.962 -16.683)"/><path class="a" d="M11.585,43.8a.608.608,0,1,0,0-1.216h-.007a.608.608,0,0,0,.007,1.216Z" transform="translate(-4.299 -16.685)"/><path class="a" d="M24.311,46.827H24.3a.611.611,0,1,0,.007,0Z" transform="translate(-9.286 -18.349)"/><path class="a" d="M20.068,43.8a.608.608,0,1,0,0-1.216h-.007a.608.608,0,0,0,.007,1.216Z" transform="translate(-7.623 -16.686)"/><path class="a" d="M15.826,39.558a.608.608,0,0,0,0-1.216h-.007a.608.608,0,0,0,.007,1.216Z" transform="translate(-5.961 -15.024)"/><path class="a" d="M47.443,7.925a.608.608,0,0,0,0-1.216h-.007a.608.608,0,0,0,.007,1.216Z" transform="translate(-18.351 -2.628)"/><path class="a" d="M47.443,12.172a.608.608,0,0,0,0-1.216h-.007a.608.608,0,0,0,.007,1.216Z" transform="translate(-18.351 -4.292)"/><path class="a" d="M51.686,12.166a.608.608,0,0,0,0-1.216h-.007a.608.608,0,0,0,.007,1.216Z" transform="translate(-20.013 -4.29)"/><path class="a" d="M51.686,16.414a.608.608,0,0,0,0-1.216h-.007a.608.608,0,0,0,.007,1.216Z" transform="translate(-20.013 -5.954)"/><path class="a" d="M55.928,16.409a.608.608,0,0,0,0-1.216h-.007a.608.608,0,0,0,.007,1.216Z" transform="translate(-21.676 -5.953)"/><path class="a" d="M43.2,12.164a.608.608,0,0,0,0-1.216H43.2a.608.608,0,0,0,.007,1.216Z" transform="translate(-16.689 -4.289)"/><path class="a" d="M43.2,16.412a.608.608,0,0,0,0-1.216H43.2a.608.608,0,0,0,.007,1.216Z" transform="translate(-16.689 -5.954)"/><path class="a" d="M47.445,15.191h-.007a.611.611,0,1,0,.007,0Z" transform="translate(-18.351 -5.952)"/><path class="a" d="M47.445,20.655a.608.608,0,0,0,0-1.216h-.007a.608.608,0,0,0,.007,1.216Z" transform="translate(-18.351 -7.616)"/><path class="a" d="M51.688,19.434h-.007a.611.611,0,1,0,.007,0Z" transform="translate(-20.014 -7.614)"/><path class="a" d="M38.962,16.405a.608.608,0,1,0,0-1.216h-.007a.608.608,0,0,0,.007,1.216Z" transform="translate(-15.027 -5.951)"/><path class="a" d="M43.205,19.432H43.2a.611.611,0,1,0,.007,0Z" transform="translate(-16.69 -7.614)"/><path class="a" d="M47.447,23.675H47.44a.611.611,0,1,0,.007,0Z" transform="translate(-18.352 -9.276)"/><path class="a" d="M28.922,19.46l9.111-9.111a3.044,3.044,0,0,0,0-4.3L32.87.887a3.046,3.046,0,0,0-4.3,0L19.46,10,10.349.887a3.044,3.044,0,0,0-4.3,0L.888,6.049a3.046,3.046,0,0,0,0,4.3L10,19.46.887,28.57a3.045,3.045,0,0,0,0,4.3l5.162,5.161a3.044,3.044,0,0,0,4.3,0l9.112-9.111,9.11,9.111a3.044,3.044,0,0,0,4.3,0l5.161-5.161a3.046,3.046,0,0,0,0-4.3ZM1.748,9.488a1.829,1.829,0,0,1,0-2.579L6.909,1.748a1.826,1.826,0,0,1,2.58,0l9.11,9.111L10.858,18.6ZM9.489,37.172a1.873,1.873,0,0,1-2.579,0L1.748,32.011a1.828,1.828,0,0,1,0-2.58L11.28,19.9s.008,0,.011-.007,0-.007.007-.011L19.89,11.29h0v0l9.539-9.539a1.83,1.83,0,0,1,2.579,0l5.162,5.162a1.826,1.826,0,0,1,0,2.58l-9.536,9.536-.007,0s0,0,0,.007Zm27.683-5.161L32.01,37.172a1.826,1.826,0,0,1-2.58,0L20.32,28.061l7.742-7.741,9.11,9.111a1.829,1.829,0,0,1,0,2.58Z" transform="translate(0.002 0.002)"/><path class="a" d="M55.944,46.807h-.007a.611.611,0,1,0,.007,0Z" transform="translate(-21.682 -18.341)"/><path class="a" d="M51.7,48.023a.608.608,0,1,0,0-1.216h-.007a.608.608,0,0,0,.007,1.216Z" transform="translate(-20.017 -18.341)"/><path class="a" d="M51.7,51.049H51.7a.611.611,0,1,0,.007,0Z" transform="translate(-20.02 -20.003)"/><path class="a" d="M47.454,52.265a.608.608,0,0,0,0-1.216h-.007a.608.608,0,0,0,.007,1.216Z" transform="translate(-18.355 -20.003)"/><path class="a" d="M47.46,55.291h-.007a.611.611,0,1,0,.007,0Z" transform="translate(-18.357 -21.665)"/><path class="a" d="M51.7,42.566H51.7a.611.611,0,1,0,.007,0Z" transform="translate(-20.02 -16.679)"/><path class="a" d="M47.456,43.782a.608.608,0,0,0,0-1.216h-.007a.608.608,0,0,0,.007,1.216Z" transform="translate(-18.356 -16.679)"/><path class="a" d="M47.461,46.809h-.007a.611.611,0,1,0,.007,0Z" transform="translate(-18.358 -18.342)"/><path class="a" d="M43.213,48.026a.608.608,0,0,0,0-1.216h-.007a.608.608,0,0,0,.007,1.216Z" transform="translate(-16.693 -18.342)"/><path class="a" d="M43.218,51.051h-.007a.611.611,0,1,0,.007,0Z" transform="translate(-16.695 -20.004)"/><path class="a" d="M47.463,38.325h-.007a.611.611,0,1,0,.007,0Z" transform="translate(-18.359 -15.017)"/><path class="a" d="M43.22,42.568h-.007a.611.611,0,1,0,.007,0Z" transform="translate(-16.696 -16.68)"/><path class="a" d="M38.978,46.811h-.007a.611.611,0,1,0,.007,0Z" transform="translate(-15.034 -18.342)"/><path class="a" d="M7.345,15.193H7.338a.612.612,0,1,0,.006,0Z" transform="translate(-2.638 -5.953)"/><path class="a" d="M11.593,15.193h-.007a.611.611,0,1,0,.007,0Z" transform="translate(-4.302 -5.953)"/><path class="a" d="M11.587,12.166a.608.608,0,1,0,0-1.216H11.58a.608.608,0,0,0,.006,1.216Z" transform="translate(-4.3 -4.29)"/><path class="a" d="M15.835,10.95h-.007a.611.611,0,1,0,.007,0Z" transform="translate(-5.965 -4.29)"/><path class="a" d="M15.83,7.925a.608.608,0,0,0,0-1.216h-.007a.608.608,0,0,0,.007,1.216Z" transform="translate(-5.963 -2.628)"/><path class="a" d="M11.585,19.434h-.007a.611.611,0,1,0,.007,0Z" transform="translate(-4.299 -7.614)"/><path class="a" d="M15.833,19.434h-.007a.611.611,0,1,0,.007,0Z" transform="translate(-5.964 -7.614)"/><path class="a" d="M15.828,16.407a.608.608,0,0,0,0-1.216h-.007a.608.608,0,0,0,.007,1.216Z" transform="translate(-5.962 -5.952)"/><path class="a" d="M20.076,15.191h-.007a.611.611,0,1,0,.007,0Z" transform="translate(-7.627 -5.952)"/><path class="a" d="M20.07,12.164a.608.608,0,0,0,0-1.216h-.007a.608.608,0,0,0,.007,1.216Z" transform="translate(-7.624 -4.289)"/><path class="a" d="M15.825,23.674h-.007a.611.611,0,1,0,.007,0Z" transform="translate(-5.961 -9.276)"/><path class="a" d="M20.068,19.432h-.007a.611.611,0,1,0,.007,0Z" transform="translate(-7.623 -7.614)"/><path class="a" d="M24.311,15.189H24.3a.611.611,0,1,0,.007,0Z" transform="translate(-9.286 -5.951)"/><path class="a" d="M28.16,21.28a.607.607,0,0,0-.86,0L21.28,27.3a.607.607,0,0,0,0,.86l6.02,6.02a.608.608,0,0,0,.86,0l6.02-6.02a.607.607,0,0,0,0-.86Zm-.43,11.61-5.16-5.16,5.16-5.16,5.16,5.16Z" transform="translate(-8.268 -8.268)"/></svg>