<svg xmlns="http://www.w3.org/2000/svg" width="38.137" height="38.137" viewBox="0 0 38.137 38.137"><defs><style>.a{fill:#c9c9c9;}</style></defs><g transform="translate(23.961)"><path class="a" d="M322.961.218a.745.745,0,0,0-1.272.527.745.745,0,1,0,1.272-.527Z" transform="translate(-321.689)"/></g><path class="a" d="M29.645,0H28.118a.745.745,0,1,0,0,1.49h1.527a7.01,7.01,0,0,1,7,7v10.13a7.016,7.016,0,0,1-4.066,6.358c.028-.279.044-.561.044-.846V20.744a.745.745,0,1,0-1.49,0v3.389a7.016,7.016,0,0,1-4.064,6.357q.041-.417.042-.845V19.515a8.5,8.5,0,0,0-8.491-8.491H8.491q-.428,0-.845.042a7.007,7.007,0,0,1,4.467-3.8.741.741,0,0,0,.2-.054A7,7,0,0,1,14,7h10.13a7.01,7.01,0,0,1,7,7v1.3a.745.745,0,1,0,1.49,0V14a8.5,8.5,0,0,0-8.491-8.491H14c-.285,0-.567.016-.846.044A7.006,7.006,0,0,1,19.515,1.49h1.676a.745.745,0,0,0,0-1.49H19.515a8.493,8.493,0,0,0-8.091,5.914,8.491,8.491,0,0,0-5.512,5.511A8.506,8.506,0,0,0,0,19.515v10.13a8.5,8.5,0,0,0,8.491,8.491h10.13a8.506,8.506,0,0,0,8.09-5.912,8.5,8.5,0,0,0,5.509-5.511,8.5,8.5,0,0,0,5.916-8.093V8.491A8.5,8.5,0,0,0,29.645,0ZM25.623,29.645a7.01,7.01,0,0,1-7,7H8.491a7.01,7.01,0,0,1-7-7V19.515A7.014,7.014,0,0,1,6.6,12.774a.743.743,0,0,0,.2-.053,6.993,6.993,0,0,1,1.695-.208h10.13a7.01,7.01,0,0,1,7,7Z"/><g transform="translate(31.135 17.355)"><path class="a" d="M419.271,233.218a.744.744,0,1,0,.218.527A.75.75,0,0,0,419.271,233.218Z" transform="translate(-418 -233)"/></g><g transform="translate(4.354 16.88)"><path class="a" d="M59.967,226.749a.745.745,0,0,0-1.033.207,4.852,4.852,0,0,0-.419.772.745.745,0,1,0,1.369.588,3.364,3.364,0,0,1,.29-.535A.745.745,0,0,0,59.967,226.749Z" transform="translate(-58.455 -226.624)"/></g><g transform="translate(4.342 30.108)"><path class="a" d="M60,405.2a3.353,3.353,0,0,1-.286-.537.745.745,0,0,0-1.373.577,4.855,4.855,0,0,0,.413.776A.745.745,0,0,0,60,405.2Z" transform="translate(-58.287 -404.206)"/></g><g transform="translate(7.779 32.61)"><path class="a" d="M105.923,437.816h-.393c-.1,0-.193,0-.289-.012a.745.745,0,1,0-.126,1.484c.137.012.276.018.414.018h.393a.745.745,0,0,0,0-1.49Z" transform="translate(-104.434 -437.801)"/></g><g transform="translate(4.022 25.682)"><path class="a" d="M54.745,344.786a.745.745,0,0,0-.745.745v.745a.745.745,0,0,0,1.49,0v-.745A.745.745,0,0,0,54.745,344.786Z" transform="translate(-54 -344.786)"/></g><g transform="translate(21.112 17.208)"><path class="a" d="M285.177,232.23a4.839,4.839,0,0,0-.345-.809.745.745,0,0,0-1.312.706,3.346,3.346,0,0,1,.239.56.745.745,0,1,0,1.418-.457Z" transform="translate(-283.431 -231.029)"/></g><g transform="translate(4.022 21.213)"><path class="a" d="M54.745,284.786a.745.745,0,0,0-.745.745v.745a.745.745,0,0,0,1.49,0v-.745A.745.745,0,0,0,54.745,284.786Z" transform="translate(-54 -284.786)"/></g><g transform="translate(7.81 15.046)"><path class="a" d="M106.342,202h-.424c-.126,0-.253,0-.378.014a.745.745,0,0,0,.056,1.488l.058,0c.087-.007.175-.01.263-.01h.424a.745.745,0,1,0,0-1.49Z" transform="translate(-104.853 -202)"/></g><g transform="translate(21.601 26.065)"><path class="a" d="M290.745,349.938a.745.745,0,0,0-.745.745v.745a.745.745,0,0,0,1.49,0v-.745A.745.745,0,0,0,290.745,349.938Z" transform="translate(-290 -349.938)"/></g><g transform="translate(20.707 30.454)"><path class="a" d="M279.51,408.943a.745.745,0,0,0-1.008.3,3.374,3.374,0,0,1-.335.508.745.745,0,0,0,1.165.928,4.868,4.868,0,0,0,.483-.734A.745.745,0,0,0,279.51,408.943Z" transform="translate(-278.004 -408.855)"/></g><g transform="translate(21.601 21.596)"><path class="a" d="M290.745,289.938a.745.745,0,0,0-.745.745v.745a.745.745,0,0,0,1.49,0v-.745A.745.745,0,0,0,290.745,289.938Z" transform="translate(-290 -289.938)"/></g><g transform="translate(16.717 32.625)"><path class="a" d="M225.917,438h-.745a.745.745,0,0,0,0,1.49h.745a.745.745,0,0,0,0-1.49Z" transform="translate(-224.427 -438)"/></g><g transform="translate(16.748 15.046)"><path class="a" d="M227.162,202.07a4.9,4.9,0,0,0-.826-.07h-.745a.745.745,0,0,0,0,1.49h.745a3.416,3.416,0,0,1,.574.049.745.745,0,0,0,.252-1.468Z" transform="translate(-224.846 -202)"/></g><g transform="translate(12.279 15.046)"><path class="a" d="M166.337,202h-.745a.745.745,0,1,0,0,1.49h.745a.745.745,0,1,0,0-1.49Z" transform="translate(-164.847 -202)"/></g><g transform="translate(12.247 32.625)"><path class="a" d="M165.917,438h-.745a.745.745,0,0,0,0,1.49h.745a.745.745,0,0,0,0-1.49Z" transform="translate(-164.427 -438)"/></g></svg>